<?xml version="1.0" encoding="UTF-8"?>
<svg width="400px" height="320px" viewBox="0 0 400 320" version="1.1" xmlns="http://www.w3.org/2000/svg" xmlns:xlink="http://www.w3.org/1999/xlink">
    <!-- Generator: Sketch 61.2 (89653) - https://sketch.com -->
    <title>img-placeholder-h</title>
    <desc>Created with Sketch.</desc>
    <g id="img-placeholder-h" stroke="none" stroke-width="1" fill="none" fill-rule="evenodd">
        <rect id="Rectangle" fill="#1A1A1B" x="0" y="0" width="400" height="320" rx="60"></rect>
        <g id="lifestrategics_iso_opt" transform="translate(150.000000, 101.000000)" fill="#FFFFFF" fill-rule="nonzero">
            <path d="M98.8721165,72.2399999 C98.8117551,72.1200001 98.8117551,71.94 98.7513935,71.8199999 C97.8459713,69.3 96.4576571,67.08 94.6468125,65.0999999 C92.8359678,63.12 90.4215082,61.3799999 87.5241568,59.82 C84.6268054,58.2600001 79.737525,56.82 72.9770384,55.3800001 C68.1481194,54.36 63.6813692,53.52 59.5164266,52.7399999 C57.7659434,52.44 56.0758218,52.14 54.4460616,51.84 C48.530636,50.4600001 44.4260548,48.06 42.1926798,44.58 C40.8043656,42.42 40.0800276,39.9 40.0800276,37.02 C40.0800276,37.02 40.0800276,37.02 40.0800276,37.02 C40.0800276,32.4 42.1926798,28.68 46.3576224,25.8599999 C48.047744,24.72 49.9189502,23.8200001 51.9712408,23.16 C55.1703996,22.1399999 58.7920888,21.5999999 62.89667,21.5999999 C74.7275214,21.5999999 85.0493358,24.84 93.9224744,31.32 C94.9486199,29.34 95.6125963,27.18 95.6125963,24.84 L95.6125963,24.84 C95.6125963,23.34 95.3107887,21.84 94.8278969,20.46 C94.8278969,20.46 94.8278969,20.46 94.8278969,20.46 C94.5260895,19.56 94.103559,18.72 93.620667,17.88 C93.1981366,17.7 92.7756062,17.58 92.3530758,17.4 C91.8098224,17.22 91.3269306,17.04 90.7836772,16.86 C81.488008,13.62 72.2527004,11.94 62.9570314,11.94 C59.5767882,11.94 56.4379908,12.24 53.4802778,12.72 C47.1423218,13.8 41.7097878,16.02 37.1826762,19.38 C33.3799026,22.26 30.6636356,25.5599999 29.0338754,29.34 C27.8870072,32.1 27.2833924,35.0399999 27.2833924,38.28 C27.2833924,38.5200001 27.2833924,38.7 27.2833924,38.8799999 C27.4041154,45.18 29.4564058,50.34 33.3799026,54.4200001 C33.440264,54.48 33.5006256,54.6 33.6213486,54.6599999 C36.7601458,57.78 40.98545,60.1800001 46.3576224,61.86 C48.2288284,62.46 50.160396,62.9400001 52.3334096,63.3600001 L61.2669098,65.04 L74.425714,67.5599999 C78.5302952,68.64 81.5483696,70.02 83.5402986,71.8199999 C83.842106,72.1200001 84.1439136,72.4200001 84.445721,72.72 C86.3772886,74.94 87.2827108,77.94 87.2827108,81.78 C87.2827108,81.9 87.2827108,82.08 87.2827108,82.2 C87.1619878,87 84.9286128,90.8999999 80.5222242,93.84 C75.9951128,96.8400001 71.6490856,97.9200001 63.7417308,97.9200001 C59.7578726,97.9200001 56.0758218,97.9200001 52.75594,97.98 C39.5971358,98.0400001 31.3879734,98.0400001 26.3176086,98.0400001 C18.0480847,98.0400001 18.0480847,98.0400001 18.0480847,98.0400001 L12.3137434,98.0400001 L12.3137434,98.0400001 L12.4344664,67.5599999 L12.4948279,49.3199999 L12.6759124,0 C10.8650677,0.6 8.81277716,1.44 7.36410146,2.7 C6.51904064,3.42 5.7343413,4.2 5.07036494,5.03999999 C2.05229058,8.52 0.422530412,12.78 0.422530412,17.76 L0.301807438,45.7800001 L0.181084462,71.1 L0,106.8 L0,107.94 L0,108 L1.81084462,108 L16.2976016,108 L18.1084462,108 L23.903149,108 L25.7139936,108 L51.6694332,108 L53.4802778,108 L59.9993186,108 L59.9993186,108 L61.8101632,108 L61.8101632,108 C69.6571566,108 76.4780046,106.74 82.212346,104.28 C83.842106,103.56 85.4115048,102.78 86.920542,101.88 C87.8259642,101.34 88.671025,100.74 89.5160858,100.08 C94.224282,96.48 97.3630793,92.2800001 98.8721165,87.4800001 C99.5964545,85.2 99.9586233,82.74 99.9586233,80.1000001 C99.9586233,80.1000001 99.9586233,80.0399999 99.9586233,80.0399999 C100.139708,77.28 99.7171773,74.64 98.8721165,72.2399999 Z" id="Logo-LS"></path>
        </g>
    </g>
</svg>