<?xml version="1.0" encoding="UTF-8"?>
<svg width="799px" height="117px" viewBox="0 0 799 117" version="1.1" xmlns="http://www.w3.org/2000/svg" xmlns:xlink="http://www.w3.org/1999/xlink">
    <!-- Generator: Sketch 61.2 (89653) - https://sketch.com -->
    <title>Isologo</title>
    <desc>Created with Sketch.</desc>
    <g id="Page-1" stroke="none" stroke-width="1" fill="none" fill-rule="evenodd">
        <g id="Isologo">
            <path d="M83.3821515,61.5377778 C83.3312467,61.4355556 83.3312467,61.2822222 83.2803418,61.18 C82.516769,59.0333333 81.3459574,57.1422222 79.8188117,55.4555556 C78.2916661,53.7688889 76.2554719,52.2866667 73.8120389,50.9577778 C71.3686059,49.6288889 67.2453127,48.4022222 61.543969,47.1755556 C57.4715806,46.3066667 53.7046214,45.5911111 50.1921865,44.9266667 C48.7159457,44.6711111 47.2906098,44.4155556 45.9161787,44.16 C40.927503,42.9844444 37.4659729,40.94 35.5824932,37.9755556 C34.4116816,36.1355556 33.8008233,33.9888889 33.8008233,31.5355556 C33.8008233,31.5355556 33.8008233,31.5355556 33.8008233,31.5355556 C33.8008233,27.6 35.5824932,24.4311111 39.0949282,22.0288889 C40.5202641,21.0577778 42.0983146,20.2911111 43.8290797,19.7288889 C46.5270369,18.86 49.5813282,18.4 53.0428583,18.4 C63.0202098,18.4 71.7249399,21.16 79.2079535,26.68 C80.073336,24.9933333 80.6332894,23.1533333 80.6332894,21.16 L80.6332894,21.16 C80.6332894,19.8822222 80.3787651,18.6044444 79.9715263,17.4288889 C79.9715263,17.4288889 79.9715263,17.4288889 79.9715263,17.4288889 C79.717002,16.6622222 79.360668,15.9466667 78.9534292,15.2311111 C78.5970952,15.0777778 78.2407612,14.9755556 77.8844273,14.8222222 C77.4262836,14.6688889 77.0190447,14.5155556 76.5609011,14.3622222 C68.7215535,11.6022222 60.9331107,10.1711111 53.0937632,10.1711111 C50.2430913,10.1711111 47.5960389,10.4266667 45.101701,10.8355556 C39.7566913,11.7555556 35.1752544,13.6466667 31.3573903,16.5088889 C28.1503845,18.9622222 25.859666,21.7733333 24.485235,24.9933333 C23.5180427,27.3444444 23.0089942,29.8488889 23.0089942,32.6088889 C23.0089942,32.8133333 23.0089942,32.9666667 23.0089942,33.12 C23.1108039,38.4866667 24.841569,42.8822222 28.1503845,46.3577778 C28.2012893,46.4088889 28.2521942,46.5111111 28.3540039,46.5622222 C31.0010563,49.22 34.5643962,51.2644444 39.0949282,52.6955556 C40.6729787,53.2066667 42.301934,53.6155556 44.1345088,53.9733333 L51.6684272,55.4044444 L62.7656855,57.5511111 C66.2272156,58.4711111 68.7724583,59.6466667 70.4523185,61.18 C70.7068428,61.4355556 70.9613671,61.6911111 71.2158913,61.9466667 C72.8448467,63.8377778 73.6084195,66.3933333 73.6084195,69.6644444 C73.6084195,69.7666667 73.6084195,69.92 73.6084195,70.0222222 C73.5066098,74.1111111 71.6231302,77.4333333 67.9070758,79.9377778 C64.0892117,82.4933333 60.4240622,83.4133333 53.7555263,83.4133333 C50.3958059,83.4133333 47.2906098,83.4133333 44.4908428,83.4644444 C33.3935845,83.5155556 26.4705243,83.5155556 22.1945165,83.5155556 C15.2205515,83.5155556 15.2205515,83.5155556 15.2205515,83.5155556 L10.3845903,83.5155556 L10.3845903,83.5155556 L10.4864,57.5511111 L10.5373049,42.0133333 L10.6900194,0 C9.1628738,0.511111111 7.43210875,1.22666667 6.21039224,2.3 C5.49772428,2.91333333 4.83596117,3.57777778 4.27600777,4.29333333 C1.73076505,7.25777778 0.356333981,10.8866667 0.356333981,15.1288889 L0.254524272,38.9977778 L0.152714563,60.5666667 L0,90.9777778 L0,91.9488889 L0,92 L1.52714563,92 L13.7443107,92 L15.2714563,92 L20.1583224,92 L21.685468,92 L43.5745554,92 L45.101701,92 L50.5994253,92 L50.5994253,92 L52.1265709,92 L52.1265709,92 C58.744202,92 64.4964506,90.9266667 69.3324117,88.8311111 C70.7068428,88.2177778 72.030369,87.5533333 73.3029904,86.7866667 C74.0665632,86.3266667 74.7792311,85.8155556 75.4918991,85.2533333 C79.4624778,82.1866667 82.1095302,78.6088889 83.3821515,74.52 C83.9930098,72.5777778 84.2984389,70.4822222 84.2984389,68.2333333 C84.2984389,68.2333333 84.2984389,68.1822222 84.2984389,68.1822222 C84.4511535,65.8311111 84.0948195,63.5822222 83.3821515,61.5377778 Z" id="Iso" fill="#FFFFFF" fill-rule="nonzero"></path>
            <g id="Logo" transform="translate(131.523810, 3.000000)">
                <path d="M387.852507,24.9176471 L387.852507,10.8 L387.852507,10.8 C382.795617,12.1445378 379.087231,16.1781513 378.412979,21.5563025 L378.412979,23.9092437 L378.412979,28.2789916 C378.412979,28.2789916 378.412979,28.2789916 378.412979,28.2789916 C375.041719,29.6235294 372.681837,32.6487395 371.333333,36.010084 L371.333333,36.010084 L378.412979,36.010084 L378.412979,42.3966387 L378.412979,69.9596639 C378.412979,83.7411765 384.818373,90.8 397.292035,90.8 C401.000421,90.8 405.045933,90.1277311 409.428571,89.1193277 L409.428571,80.3798319 L409.091445,80.3798319 C405.720185,81.7243697 403.023177,82.3966387 400.326169,82.3966387 C397.629161,82.3966387 395.269279,82.0605042 393.246523,81.0521008 C391.560893,80.0436975 390.212389,78.6991597 389.201011,77.0184874 C388.189633,75.0016807 387.852507,70.9680672 387.852507,64.5815126 L387.852507,36.010084 L409.428571,36.010084 L409.428571,28.2789916 L387.852507,28.2789916 L387.852507,24.9176471 Z" id="XMLID_54_" fill="#FFFFFF" fill-rule="nonzero"></path>
                <path d="M542.761905,16.4285714 L542.761905,16.4285714 L554.190476,16.4285714 L554.190476,5 C548.833333,5.78817734 544.190476,10.1231527 542.761905,16.4285714 Z" id="XMLID_53_" fill="#FFFFFF" fill-rule="nonzero"></path>
                <g id="XMLID_34_" transform="translate(0.000000, 0.918540)">
                    <path d="M172.364008,79.6243386 L172.364008,79.6243386 L172.364008,79.6243386 C172.364008,79.2857143 172.364008,79.2857143 172.364008,79.2857143 C172.364008,79.2857143 172.364008,79.6243386 172.364008,79.6243386 Z" id="XMLID_52_" fill="#666666" fill-rule="nonzero"></path>
                    <path d="M490.723342,35.6031746 C487.311131,39.6666667 485.605025,45.0846561 485.605025,52.5343915 C485.605025,67.0952381 491.064563,74.5449735 501.98364,74.5449735 C507.7844,74.5449735 513.92638,72.1746032 520.068361,67.4338624 L520.068361,33.2328042 C514.608823,30.8624339 509.490505,29.5079365 504.713409,29.5079365 C498.571429,29.8465608 494.135554,31.8783069 490.723342,35.6031746 Z" id="XMLID_51_"></path>
                    <path d="M444.317266,29.1693122 C438.857727,29.1693122 434.080631,30.8624339 430.66842,34.2486772 C427.256208,37.6349206 425.208881,42.037037 424.86766,47.7936508 L461.378323,47.7936508 C461.037102,35.2645503 455.577564,29.1693122 444.317266,29.1693122 Z" id="XMLID_50_"></path>
                    <path d="M325.913526,66.4179894 C325.913526,73.8677249 330.349401,77.5925926 339.562372,77.5925926 C345.704353,77.5925926 351.846334,75.2222222 358.329535,70.1428571 L358.329535,52.1957672 C344.680689,52.8730159 335.80894,54.2275132 332.055507,56.5978836 C327.960853,58.968254 325.913526,62.3544974 325.913526,66.4179894 Z" id="XMLID_49_"></path>
                    <path d="M125.957932,33.9100529 C122.54572,37.2962963 120.498393,41.6984127 120.157172,47.4550265 L150.525855,47.4550265 L150.525855,32.2169312 C147.796085,30.1851852 144.042653,28.8306878 139.606778,28.8306878 C133.806018,29.1693122 129.370143,30.5238095 125.957932,33.9100529 Z" id="XMLID_48_"></path>
                    <rect id="XMLID_47_" fill="#FFFFFF" fill-rule="nonzero" x="57.3724803" y="26.48146" width="9.55419223" height="61.6296296"></rect>
                    <path d="M318.406661,36.9174388 L318.406661,26.7587087 C316.018113,26.4200843 313.629565,26.08146 311.582238,26.08146 C308.170026,26.08146 304.757815,27.097333 301.004382,28.7904547 C297.592171,30.4835764 293.838738,32.5153224 290.085305,35.9015658 L290.085305,26.4200843 L289.744084,26.4200843 C284.284546,27.7745817 280.189892,32.5153224 280.189892,38.2719362 L280.189892,88.049714 L289.744084,88.049714 L289.744084,43.6899256 C291.108969,42.6740526 292.473853,41.6581796 293.838738,40.6423066 C297.592171,38.2719362 301.004382,36.9174388 304.757815,36.2401902 C306.122699,35.9015658 307.146363,35.9015658 308.511247,35.9015658 C311.582238,35.9015658 314.653228,36.2401902 317.724219,36.9174388 L318.406661,36.9174388 L318.406661,36.9174388 Z" id="XMLID_46_" fill="#FFFFFF" fill-rule="nonzero"></path>
                    <rect id="XMLID_45_" fill="#FFFFFF" fill-rule="nonzero" x="543.953842" y="26.3460103" width="9.55419223" height="61.6296296"></rect>
                    <path d="M10.2839614,30.1624124 L10.2839614,5.78146 L9.94274029,5.78146 C4.14198072,6.79733301 0.0473269062,11.8766981 0.0473269062,17.9719362 L0.0473269062,88.0671743 L51.5717207,88.0671743 L51.5717207,79.2629415 L10.2839614,79.2629415 L10.2839614,30.1624124 Z" id="XMLID_44_" fill="#FFFFFF" fill-rule="nonzero"></path>
                    <path d="M110.261759,26.1624124 L91.1533742,26.1624124 L91.1533742,24.4692907 C91.1533742,19.3899256 92.1770377,15.3264335 94.2243646,13.2946875 C96.2716915,10.9243171 99.683903,9.90844412 104.80222,9.90844412 C107.531989,9.90844412 110.261759,10.5856928 113.67397,11.6015658 L114.015191,11.6015658 L114.015191,2.79733301 C109.920538,2.12008433 106.167105,1.78146 102.754893,1.78146 C95.9304703,1.78146 90.8121531,3.81320603 87.0587204,7.53807375 C83.3052878,11.2629415 81.599182,17.0195552 81.599182,24.1306663 L81.599182,26.1624124 C81.2579609,26.1624124 81.2579609,26.5010367 80.9167397,26.5010367 C77.8457493,27.8555341 75.4572013,30.9031531 74.4335378,34.2893965 L74.4335378,34.2893965 L81.599182,34.2893965 L81.599182,39.0301372 L81.599182,88.1306663 L91.1533742,88.1306663 L91.1533742,33.9507722 L109.920538,33.9507722 L109.920538,26.1624124 L110.261759,26.1624124 Z" id="XMLID_43_" fill="#FFFFFF" fill-rule="nonzero"></path>
                    <path d="M56.690038,10.5449735 L56.690038,10.5449735 L67.6091148,10.5449735 L67.6091148,0.724867725 C62.1495764,1.4021164 57.7137014,5.12698413 56.690038,10.5449735 Z" id="XMLID_42_" fill="#FFFFFF" fill-rule="nonzero"></path>
                    <path d="M252.209758,23.5036822 L252.209758,9.28146 L252.209758,9.28146 C247.09144,10.6359573 243.338008,14.6994494 242.655565,20.1174388 L242.655565,22.4878092 L242.655565,26.8899256 C242.655565,26.8899256 242.655565,26.8899256 242.655565,26.8899256 C239.243354,28.244423 236.854806,31.292042 235.489921,34.6782854 L235.489921,34.6782854 L242.655565,34.6782854 L242.655565,41.1121478 L242.655565,68.8793436 C242.655565,82.7629415 249.138767,89.8740526 261.76395,89.8740526 C265.517382,89.8740526 269.612036,89.1968039 274.047911,88.1809309 L274.047911,79.3766981 L273.70669,79.3766981 C270.294479,80.7311954 267.564709,81.4084441 264.83494,81.4084441 C262.105171,81.4084441 259.716623,81.0698198 257.669296,80.0539468 C255.96319,79.0380738 254.598306,77.6835764 253.574642,75.9904547 C252.550979,73.9587087 252.209758,69.8952166 252.209758,63.4613542 L252.209758,34.6782854 L274.047911,34.6782854 L274.047911,26.8899256 L252.209758,26.8899256 L252.209758,23.5036822 Z" id="XMLID_41_" fill="#FFFFFF" fill-rule="nonzero"></path>
                    <path d="M333.761613,22.0582011 C332.737949,22.0582011 331.714286,22.0582011 331.031843,22.3968254 C332.055507,22.0582011 332.737949,22.0582011 333.761613,22.0582011 C333.761613,22.0582011 333.761613,22.0582011 333.761613,22.0582011 Z" id="XMLID_40_" fill="#666666" fill-rule="nonzero"></path>
                    <path d="M361.400526,30.1608251 C356.964651,26.7745817 350.481449,25.08146 341.268478,25.08146 C338.87993,25.08146 336.491382,25.4200843 333.761613,25.4200843 C332.737949,25.4200843 332.055507,25.7587087 331.031843,25.7587087 C325.913526,27.113206 321.818872,31.5153224 321.477651,36.9333118 L321.477651,37.9491849 L321.818872,37.9491849 C328.643295,34.9015658 335.126497,33.5470685 340.927257,33.5470685 C342.633363,33.5470685 344.339468,33.5470685 345.704353,33.8856928 C349.799007,34.2243171 352.528776,35.2401902 354.576103,36.5946875 C357.305872,38.6264335 358.329535,41.6740526 358.329535,46.076169 L358.329535,47.7692907 C340.927257,48.4465394 329.666959,50.4782854 324.20742,54.2031531 C318.747882,57.9280208 316.018113,63.3460103 316.018113,70.4571214 C316.018113,76.2137351 317.724219,80.6158515 321.477651,84.3407193 C325.231084,88.065587 329.666959,89.7587087 335.126497,89.7587087 C338.538709,89.7587087 341.95092,89.4200843 345.363132,88.4042113 C348.775343,87.3883383 352.869997,85.0179679 357.988314,81.2931002 L357.988314,88.065587 L367.542507,88.065587 L367.542507,45.7375447 C367.883728,38.9650579 365.49518,33.5470685 361.400526,30.1608251 Z M357.988314,73.5047404 C351.505112,78.5841055 345.363132,80.9544759 339.221151,80.9544759 C330.349401,80.9544759 325.572305,77.2296081 325.572305,69.7798727 C325.572305,65.7163806 327.619632,62.3301372 331.373065,59.9597669 C335.126497,57.5893965 343.998247,56.2348991 357.647093,55.5576505 L357.647093,73.5047404 L357.988314,73.5047404 Z" id="XMLID_37_" fill="#FFFFFF" fill-rule="nonzero"></path>
                    <path d="M152.573181,54.9047619 C152.914403,54.9047619 153.255624,54.9047619 153.255624,54.9047619 L151.549518,54.9047619 C152.23196,54.5661376 152.573181,54.9047619 152.573181,54.9047619 Z" id="XMLID_36_" fill="#666666" fill-rule="nonzero"></path>
                    <path d="M164.174701,37.2962963 C164.515922,38.6507937 164.857143,39.6666667 165.198364,41.021164 C164.857143,39.6666667 164.515922,38.6507937 164.174701,37.2962963 Z" id="XMLID_35_" fill="#666666" fill-rule="nonzero"></path>
                </g>
                <g id="XMLID_25_" transform="translate(474.190476, 26.100000)">
                    <path d="M14.789916,14.8278388 C11.4285714,18.8717949 9.74789916,24.2637363 9.74789916,31.6776557 C9.74789916,46.1684982 15.1260504,53.5824176 25.8823529,53.5824176 C31.5966387,53.5824176 37.6470588,51.2234432 43.697479,46.5054945 L43.697479,12.4688645 C38.3193277,10.1098901 33.2773109,8.76190476 28.5714286,8.76190476 C22.5210084,9.0989011 18.1512605,11.1208791 14.789916,14.8278388 Z" id="XMLID_33_"></path>
                    <g id="XMLID_29_" transform="translate(6.722689, 0.000000)">
                        <path d="M8.06722689,14.8278388 C4.70588235,18.8717949 3.02521008,24.2637363 3.02521008,31.6776557 C3.02521008,46.1684982 8.40336134,53.5824176 19.1596639,53.5824176 C24.8739496,53.5824176 30.9243697,51.2234432 36.9747899,46.5054945 L36.9747899,16.8498168 L32.9411765,16.8498168 L32.9411765,17.1868132 C32.605042,16.5128205 32.605042,15.5018315 32.605042,14.4908425 C32.605042,13.1428571 32.9411765,12.1318681 33.2773109,11.1208791 C29.2436975,9.77289377 25.5462185,9.0989011 22.1848739,9.0989011 C15.7983193,9.0989011 11.4285714,11.1208791 8.06722689,14.8278388 Z" id="XMLID_32_"></path>
                        <path d="M36.9747899,5.05494505 C36.9747899,5.05494505 36.9747899,5.39194139 36.9747899,5.05494505 C36.9747899,5.39194139 36.9747899,5.39194139 36.9747899,5.05494505 L36.9747899,5.05494505 Z" id="XMLID_31_" fill="#666666" fill-rule="nonzero"></path>
                        <path d="M46.3865546,2.35897436 L44.7058824,2.35897436 C45.3781513,2.35897436 46.0504202,2.35897436 46.3865546,2.35897436 L46.3865546,2.35897436 Z" id="XMLID_30_" fill="#666666" fill-rule="nonzero"></path>
                    </g>
                    <path d="M51.7647059,2.35897436 C48.7394958,2.35897436 46.0504202,3.36996337 43.697479,5.39194139 L43.697479,5.39194139 C43.697479,5.39194139 43.697479,5.39194139 43.697479,5.39194139 C37.9831933,2.35897436 32.2689076,0.673992674 26.5546218,0.673992674 C19.1596639,0.673992674 12.7731092,3.70695971 7.73109244,9.43589744 C2.68907563,15.1648352 -1.91070315e-13,22.9157509 -1.91070315e-13,32.3516484 C-1.91070315e-13,41.7875458 2.01680672,49.2014652 6.05042017,54.5934066 C10.0840336,59.985348 15.7983193,62.6813187 23.1932773,62.6813187 C30.2521008,62.6813187 37.3109244,59.985348 43.697479,54.5934066 L43.697479,60.6593407 C43.697479,67.0622711 42.0168067,71.4432234 38.9915966,74.1391941 C35.9663866,76.8351648 31.2605042,78.1831502 25.210084,78.1831502 C23.8655462,78.1831502 22.1848739,78.1831502 20.8403361,77.8461538 C19.4957983,77.8461538 18.1512605,77.5091575 16.4705882,77.1721612 C11.7647059,77.1721612 8.06722689,79.8681319 6.05042017,83.9120879 L6.05042017,84.2490842 C12.1008403,85.9340659 18.487395,86.9450549 24.5378151,86.9450549 C25.8823529,86.9450549 27.2268908,86.9450549 28.5714286,86.6080586 C44.7058824,85.2600733 53.1092437,75.1501832 53.1092437,56.6153846 L53.1092437,16.8498168 L53.1092437,2.35897436 C52.7731092,2.35897436 52.1008403,2.35897436 51.7647059,2.35897436 Z M43.697479,46.8424908 C37.6470588,51.5604396 31.9327731,53.9194139 25.8823529,53.9194139 C15.1260504,53.9194139 9.74789916,46.5054945 9.74789916,32.014652 C9.74789916,24.6007326 11.4285714,18.8717949 14.789916,15.1648352 C18.1512605,11.1208791 22.8571429,9.0989011 28.5714286,9.0989011 C31.9327731,9.0989011 35.9663866,9.77289377 39.6638655,11.1208791 C41.0084034,11.4578755 42.3529412,12.1318681 43.3613445,12.8058608 L43.3613445,16.8498168 L43.3613445,46.8424908 L43.697479,46.8424908 Z" id="XMLID_26_" fill="#FFFFFF" fill-rule="nonzero"></path>
                </g>
                <g id="XMLID_20_" transform="translate(111.476190, 25.000000)">
                    <path d="M45.7619048,26.0857143 C45.7619048,18.8857143 43.7301587,13.7428571 39.6666667,10.6571429 C36.957672,8.6 33.2328042,7.22857143 28.8306878,7.22857143 C23.4126984,7.22857143 18.6719577,8.94285714 15.2857143,12.3714286 C11.8994709,15.8 9.86772487,20.2571429 9.52910053,26.0857143 L39.6666667,26.0857143 L45.7619048,26.0857143 Z" id="XMLID_24_"></path>
                    <path d="M44.0687831,55.6857141 C43.3915344,55.6857141 42.7142857,55.6857141 42.037037,56.0285713 C42.037037,56.0285713 42.037037,56.0285713 42.037037,56.0285713 C38.989418,57.0571427 35.6031746,57.3999999 32.5555556,57.3999999 C25.4444444,57.3999999 20.026455,55.342857 15.962963,51.2285713 C11.8994709,47.1142856 9.86772487,41.2857141 9.86772487,33.742857 L41.6984127,33.742857 L43.3915344,33.742857 C49.8253968,33.3999999 54.9047619,27.9142856 54.9047619,21.3999999 C54.9047619,21.0571427 54.9047619,20.7142856 54.9047619,20.3714284 C54.5661376,18.9999999 54.2275132,17.6285713 53.8888889,16.5999999 C52.8730159,13.1714284 51.1798942,10.0857141 48.8095238,7.68571414 C44.4074074,2.88571414 37.973545,0.142857 29.8465608,0.142857 C21.042328,0.142857 13.5925926,3.22857129 8.17460317,9.05714271 C2.75661376,15.2285713 0.0476190476,23.1142856 0.0476190476,33.3999999 C0.0476190476,43.6857141 2.75661376,51.5714284 8.51322751,57.3999999 C14.2698413,62.8857141 22.0582011,65.9714284 32.2169312,65.9714284 C34.9259259,65.9714284 38.3121693,65.6285713 41.6984127,64.5999999 C45.4232804,63.5714284 49.4867725,62.542857 53.8888889,60.4857141 C51.5185185,57.742857 48.1322751,55.6857141 44.0687831,55.6857141 Z M15.6243386,13.1714284 C19.010582,9.742857 23.4126984,8.02857129 29.1693122,8.02857129 C33.9100529,8.02857129 37.2962963,9.05714271 40.005291,11.4571427 C43.7301587,14.542857 45.7619048,19.6857141 46.1005291,26.8857141 L40.005291,26.8857141 L9.86772487,26.8857141 C10.2063492,21.0571427 12.2380952,16.5999999 15.6243386,13.1714284 Z" id="XMLID_21_" fill="#FFFFFF" fill-rule="nonzero"></path>
                </g>
                <path d="M459.845973,80.7428571 C459.187537,80.7428571 458.529101,80.7428571 457.870664,81.0801587 C457.870664,81.0801587 457.870664,81.0801587 457.870664,81.0801587 C454.907701,82.0920635 451.61552,82.4293651 448.652557,82.4293651 C441.738977,82.4293651 436.471487,80.4055556 432.52087,76.3579365 C428.570253,72.3103175 426.594944,66.5761905 426.594944,59.1555556 L457.541446,59.1555556 L459.187537,59.1555556 C465.442681,58.818254 470.380952,53.4214286 470.380952,47.0126984 C470.380952,46.6753968 470.380952,46.3380952 470.380952,46.0007937 C470.051734,44.6515873 469.722516,43.302381 469.393298,42.2904762 C468.405644,38.9174603 466.759553,35.881746 464.455026,33.5206349 C460.175191,28.7984127 453.920047,26.1 446.018812,26.1 C437.459142,26.1 430.216343,29.1357143 424.948854,34.8698413 C419.681364,40.9412698 417.047619,48.6992063 417.047619,58.818254 C417.047619,68.9373016 419.681364,76.6952381 425.278072,82.4293651 C430.87478,87.8261905 438.446796,90.8619048 448.323339,90.8619048 C450.957084,90.8619048 454.249265,90.5246032 457.541446,89.5126984 C461.162845,88.5007937 465.113463,87.4888889 469.393298,85.4650794 C467.088771,82.7666667 463.79659,80.7428571 459.845973,80.7428571 Z M432.191652,38.9174603 C435.483833,35.5444444 439.763668,33.8579365 445.360376,33.8579365 C449.96943,33.8579365 453.261611,34.8698413 455.895356,37.2309524 C459.516755,40.2666667 461.492063,45.3261905 461.821282,52.4095238 L455.895356,52.4095238 L426.594944,52.4095238 C426.924162,46.6753968 428.570253,42.2904762 432.191652,38.9174603 Z" id="XMLID_17_" fill="#FFFFFF" fill-rule="nonzero"></path>
                <g id="XMLID_15_" transform="translate(171.428571, 5.000000)" fill="#FFFFFF" fill-rule="nonzero">
                    <path d="M61.3984962,54.0454212 C60.716792,51.6864469 59.3533835,50.0014652 57.9899749,47.9794872 C56.6265664,46.2945055 54.5814536,44.6095238 52.1954887,43.2615385 C49.8095238,41.9135531 45.7192982,40.5655678 39.924812,39.2175824 C34.1303258,37.8695971 29.0175439,36.8586081 24.5864662,36.1846154 C16.7468672,34.1626374 12.6566416,29.781685 12.6566416,23.0417582 C12.6566416,18.9978022 14.3609023,15.6278388 17.7694236,13.2688645 C21.1779449,10.9098901 25.9498747,9.56190476 31.7443609,9.56190476 C38.2205514,9.56190476 44.3558897,10.9098901 49.8095238,13.2688645 C52.877193,14.6168498 55.9448622,16.6388278 58.6716792,18.6608059 L59.0125313,18.6608059 C59.3533835,17.9868132 59.3533835,17.3128205 59.3533835,16.6388278 L59.3533835,14.2798535 C59.3533835,12.9318681 59.0125313,11.9208791 58.3308271,10.5728938 C56.9674185,7.53992674 54.5814536,5.18095238 51.5137845,4.16996337 C51.1729323,4.16996337 51.1729323,4.16996337 50.8320802,3.83296703 C44.3558897,1.81098901 37.8796992,0.8 31.4035088,0.8 C22.5413534,0.8 15.3834586,3.15897436 9.92982456,7.53992674 C4.47619048,11.9208791 1.74937343,17.3128205 1.74937343,24.0527473 C1.74937343,30.1186813 3.45363409,34.83663 7.20300752,38.5435897 C10.6115288,42.2505495 16.0651629,44.9465201 22.8822055,46.2945055 L41.2882206,50.0014652 C45.3784461,51.0124542 48.1052632,52.6974359 49.4686717,54.3824176 C51.1729323,56.4043956 51.8546366,59.1003663 51.8546366,62.4703297 C51.8546366,66.8512821 49.8095238,70.5582418 46.0601504,73.2542125 C42.3107769,75.9501832 37.197995,77.2981685 30.3809524,77.2981685 C29.0175439,77.2981685 27.3132832,77.2981685 25.9498747,76.9611722 C22.5413534,76.6241758 19.4736842,75.9501832 16.0651629,74.9391941 L17.7694236,75.6131868 C17.0877193,75.2761905 14.7017544,74.6021978 14.0200501,74.2652015 C8.90726817,72.9172161 3.79448622,74.9391941 0.726817043,78.9831502 C0.726817043,78.9831502 0.726817043,78.9831502 0.726817043,78.9831502 C0.726817043,78.9831502 1.06766917,78.9831502 1.06766917,78.9831502 C4.81704261,80.6681319 8.56641604,82.0161172 11.9749373,83.0271062 C18.1102757,84.7120879 23.9047619,85.7230769 29.6992481,85.7230769 C39.2431078,85.7230769 47.0827068,83.3641026 52.877193,78.6461538 C58.6716792,73.9282051 61.7393484,68.1992674 61.7393484,61.1223443 C62.4210526,58.76337 62.0802005,56.4043956 61.3984962,54.0454212 Z" id="XMLID_16_"></path>
                </g>
                <path d="M593.47619,25.5 C595.142857,25.5 596.47619,25.5 598.142857,25.8428571 C602.809524,26.5285714 607.47619,28.2428571 612.47619,30.6428571 L612.47619,30.6428571 L612.47619,32.0142857 C612.47619,35.1 611.47619,37.8428571 609.809524,39.9 C605.809524,37.1571429 601.809524,35.1 598.142857,34.4142857 C596.47619,34.0714286 595.142857,33.7285714 593.47619,33.7285714 C587.47619,33.7285714 582.47619,36.1285714 579.142857,40.2428571 C575.809524,44.7 574.142857,50.5285714 574.142857,58.4142857 C574.142857,66.3 575.809524,72.1285714 579.142857,76.2428571 C582.47619,80.3571429 587.142857,82.4142857 593.47619,82.4142857 C595.47619,82.4142857 597.47619,82.4142857 599.47619,81.7285714 C599.856645,81.6503065 600.774878,81.3575179 601.748327,81.1766512 C601.947996,81.1294702 602.158876,81.0995041 602.368752,81.0799055 C602.745741,81.034046 603.11547,81.0151241 603.450385,81.0420287 L603.47619,81.0428571 C607.142857,81.0428571 610.47619,83.1 612.809524,85.8428571 C605.47619,89.2714286 599.154341,90.7990382 593.821008,90.7990382 C593.355054,90.7990382 592.006167,90.7193535 590.84157,90.6422743 L590.809524,90.6428571 C582.809524,90.3 576.142857,87.5571429 571.47619,82.4142857 C566.47619,76.9285714 563.809524,68.7 563.809524,58.4142857 C563.809524,48.4714286 566.47619,40.2428571 571.809524,34.4142857 C577.142857,28.5857143 584.47619,25.5 593.47619,25.5 Z" id="Combined-Shape" fill="#FFFFFF" fill-rule="nonzero"></path>
                <path d="M666.142857,66.1571429 C665.47619,64.4428571 664.47619,63.0714286 663.47619,61.7 C662.142857,60.3285714 660.809524,59.3 658.809524,58.2714286 C656.809524,57.2428571 653.47619,56.2142857 649.142857,55.1857143 C644.47619,54.1571429 640.47619,53.4714286 636.809524,52.7857143 C630.47619,51.4142857 627.142857,47.9857143 627.142857,42.8428571 C627.142857,39.7571429 628.47619,37.0142857 631.47619,35.3 C634.142857,33.2428571 638.142857,32.5571429 642.47619,32.5571429 C647.809524,32.5571429 652.809524,33.5857143 657.142857,35.6428571 C659.809524,36.6714286 662.142857,38.0428571 664.142857,39.7571429 L664.47619,39.7571429 C664.47619,39.0714286 664.809524,38.7285714 664.809524,38.0428571 L664.809524,35.9857143 C664.809524,34.9571429 664.47619,34.2714286 664.142857,33.2428571 C663.142857,30.8428571 661.142857,29.1285714 658.809524,28.1 C658.47619,28.1 658.47619,28.1 658.142857,28.1 C652.809524,26.7285714 647.809524,25.7 642.47619,25.7 C635.47619,25.7 629.47619,27.4142857 625.142857,30.8428571 C620.809524,34.2714286 618.47619,38.3857143 618.47619,43.8714286 C618.47619,48.3285714 619.809524,52.1 622.809524,55.1857143 C625.809524,57.9285714 629.809524,59.9857143 635.47619,61.0142857 L650.47619,63.7571429 C653.809524,64.4428571 655.809524,65.8142857 657.142857,67.1857143 C658.47619,68.5571429 659.142857,70.6142857 659.142857,73.3571429 C659.142857,76.7857143 657.47619,79.5285714 654.47619,81.5857143 C651.47619,83.6428571 647.142857,84.6714286 641.809524,84.6714286 C640.47619,84.6714286 639.47619,84.6714286 638.142857,84.3285714 C635.47619,83.9857143 632.809524,83.6428571 630.142857,82.6142857 L631.47619,82.9571429 C631.142857,82.6142857 629.142857,82.2714286 628.47619,81.9285714 C624.47619,80.9 620.142857,82.2714286 617.809524,85.7 C617.809524,85.7 617.809524,85.7 617.809524,85.7 C617.809524,85.7 617.809524,85.7 618.142857,85.7 C621.142857,87.0714286 624.142857,88.1 627.142857,88.7857143 C632.142857,90.1571429 636.809524,90.8428571 641.47619,90.8428571 C649.142857,90.8428571 655.47619,89.1285714 660.142857,85.3571429 C664.809524,81.5857143 667.142857,77.1285714 667.142857,71.6428571 C667.142857,69.5857143 666.809524,67.5285714 666.142857,66.1571429 Z" id="XMLID_5_" fill="#FFFFFF" fill-rule="nonzero"></path>
            </g>
        </g>
    </g>
</svg>