<?xml version="1.0" encoding="UTF-8"?>
<svg width="501px" height="544px" viewBox="0 0 501 544" version="1.1" xmlns="http://www.w3.org/2000/svg" xmlns:xlink="http://www.w3.org/1999/xlink">
    <!-- Generator: Sketch 61.2 (89653) - https://sketch.com -->
    <title>Untitled</title>
    <desc>Created with Sketch.</desc>
    <g id="Page-1" stroke="none" stroke-width="1" fill="none" fill-rule="evenodd">
        <path d="M494.960582,363.476154 C494.658775,362.87254 494.658775,361.967117 494.356967,361.363502 C489.829856,348.68759 482.888285,337.520715 473.834062,327.561069 C464.779839,317.601424 452.707541,308.849008 438.220784,301.002015 C423.734027,293.155022 399.287625,285.911643 365.485192,278.668265 C341.340597,273.537538 319.006846,269.312234 298.182133,265.388737 C289.429717,263.8797 280.979109,262.370663 272.830308,260.861626 C243.25318,253.920055 222.730274,241.847757 211.563399,224.342926 C204.621828,213.477858 201.000138,200.801946 201.000138,186.315189 C201.000138,186.315189 201.000138,186.315189 201.000138,186.315189 C201.000138,163.076016 211.563399,144.363955 232.388112,130.179005 C240.83872,124.444664 250.194751,119.917553 260.456204,116.597671 C276.451998,111.466944 294.560444,108.750677 315.08335,108.750677 C374.237607,108.750677 425.846679,125.048279 470.212372,157.643482 C475.343099,147.683837 478.662981,136.818769 478.662981,125.048279 L478.662981,125.048279 C478.662981,117.503093 477.153943,109.957907 474.739484,103.016336 C474.739484,103.016336 474.739484,103.016336 474.739484,103.016336 C473.230447,98.4892246 471.117795,94.2639204 468.703335,90.0386163 C466.590683,89.133194 464.478031,88.5295791 462.365379,87.6241568 C459.649112,86.7187345 457.234653,85.8133122 454.518386,84.9078899 C408.04004,68.6102883 361.863502,60.15968 315.385157,60.15968 C298.483941,60.15968 282.789954,61.6687172 268.001389,64.0831767 C236.311609,69.5157106 209.148939,80.6825858 186.513381,97.5838022 C167.499513,112.070559 153.918178,128.669968 145.769377,147.683837 C140.035036,161.566979 137.016962,176.355543 137.016962,192.653145 C137.016962,193.860375 137.016962,194.765797 137.016962,195.671219 C137.620577,227.361 147.882029,253.31644 167.499513,273.839346 C167.80132,274.141153 168.103128,274.744768 168.706743,275.046575 C184.400729,290.740562 205.52725,302.81286 232.388112,311.263468 C241.744142,314.281542 251.40198,316.696002 262.267048,318.808654 L306.934549,327.259262 L372.72857,339.935174 C393.251476,345.367708 408.341848,352.309279 418.301493,361.363502 C419.81053,362.87254 421.319568,364.381577 422.828605,365.890614 C432.486443,377.057489 437.013554,392.147861 437.013554,411.463537 C437.013554,412.067152 437.013554,412.972574 437.013554,413.576189 C436.409939,437.720784 425.243064,457.338267 403.211121,472.126832 C380.575564,487.217204 358.845428,492.649738 319.308654,492.649738 C299.389363,492.649738 280.979109,492.649738 264.3797,492.951545 C198.585679,493.253353 157.539867,493.253353 132.188043,493.253353 C90.8404237,493.253353 90.8404237,493.253353 90.8404237,493.253353 L62.1687172,493.253353 L62.1687172,493.253353 L62.7723321,339.935174 L63.0741395,248.185713 L63.9795618,0.1 C54.9253387,3.11807437 44.6638858,7.34337849 37.4205073,13.6813347 C33.1952032,17.3030239 29.2717065,21.2265206 25.9518247,25.4518247 C10.8614529,42.9566561 2.71265206,64.3849841 2.71265206,89.4350014 L2.10903719,230.379075 L1.50542231,357.741813 L0.6,537.317238 L0.6,543.05158 L0.6,543.353387 L9.65422312,543.353387 L82.0880081,543.353387 L91.1422312,543.353387 L120.115745,543.353387 L129.169968,543.353387 L258.947166,543.353387 L268.001389,543.353387 L300.596593,543.353387 L300.596593,543.353387 L309.650816,543.353387 L309.650816,543.353387 C348.885783,543.353387 382.990023,537.015431 411.66173,524.641326 C419.81053,521.019637 427.657524,517.09614 435.20271,512.569029 C439.729821,509.852762 443.955125,506.834687 448.180429,503.514805 C471.72141,485.406359 487.415396,464.279839 494.960582,440.135244 C498.582272,428.666561 500.393116,416.292456 500.393116,403.012929 C500.393116,403.012929 500.393116,402.711121 500.393116,402.711121 C501.298538,388.827979 499.185886,375.548452 494.960582,363.476154 Z" id="Logo-LS" fill="#FFFFFF" fill-rule="nonzero"></path>
    </g>
</svg>