<?xml version="1.0" standalone="no"?>
<!DOCTYPE svg PUBLIC "-//W3C//DTD SVG 20010904//EN"
 "http://www.w3.org/TR/2001/REC-SVG-20010904/DTD/svg10.dtd">
<svg version="1.0" xmlns="http://www.w3.org/2000/svg"
 width="260.000000pt" height="260.000000pt" viewBox="0 0 260.000000 260.000000"
 preserveAspectRatio="xMidYMid meet">
<metadata>
Created by potrace 1.11, written by Peter Selinger 2001-2013
</metadata>
<g transform="translate(0.000000,260.000000) scale(0.100000,-0.100000)"
fill="#000000" stroke="none">
<path d="M145 2576 c-60 -28 -97 -66 -124 -126 -20 -44 -21 -60 -21 -1150 l0
-1105 24 -50 c28 -60 66 -97 126 -124 44 -20 60 -21 1150 -21 1090 0 1106 1
1150 21 60 27 98 64 126 124 l24 50 0 1105 0 1105 -24 50 c-28 60 -66 97 -126
124 -44 20 -60 21 -1150 21 l-1105 0 -50 -24z m685 -1207 l0 -652 393 5 c423
6 437 7 516 62 21 15 48 45 60 67 19 34 23 52 19 109 -3 60 -8 73 -33 101 -45
48 -92 64 -298 104 -204 39 -266 59 -333 107 -56 40 -91 93 -110 170 -37 144
29 282 172 360 149 80 384 83 625 7 62 -20 69 -25 80 -56 12 -37 7 -109 -9
-125 -5 -5 -28 3 -59 22 -86 53 -185 81 -308 87 -124 6 -198 -9 -264 -53 -91
-60 -109 -196 -38 -272 39 -43 98 -64 271 -98 269 -53 329 -77 403 -157 51
-56 68 -103 68 -197 0 -62 -5 -86 -28 -132 -33 -68 -106 -137 -182 -172 -111
-53 -143 -56 -643 -56 l-464 0 7 628 7 627 25 53 c23 48 88 112 115 112 4 0 8
-293 8 -651z"/>
</g>
</svg>
